<svg width="18" height="18" viewBox="0 0 18 18" fill="none" xmlns="http://www.w3.org/2000/svg">
<path d="M14.4531 3.99753C13.4556 3.53253 12.3756 3.19503 11.2506 3.00003C11.2407 2.99972 11.2309 3.00157 11.2218 3.00546C11.2128 3.00935 11.2047 3.01517 11.1981 3.02253C11.0631 3.27003 10.9056 3.59253 10.8006 3.84003C9.60733 3.66003 8.39383 3.66003 7.20058 3.84003C7.09558 3.58503 6.93808 3.27003 6.79558 3.02253C6.78808 3.00753 6.76558 3.00003 6.74308 3.00003C5.61808 3.19503 4.54558 3.53253 3.54058 3.99753C3.53308 3.99753 3.52558 4.00503 3.51808 4.01253C1.47808 7.06503 0.915576 10.035 1.19308 12.975C1.19308 12.99 1.20058 13.005 1.21558 13.0125C2.56558 14.0025 3.86308 14.6025 5.14558 15C5.16808 15.0075 5.19058 15 5.19808 14.985C5.49808 14.5725 5.76808 14.1375 6.00058 13.68C6.01558 13.65 6.00058 13.62 5.97058 13.6125C5.54308 13.4475 5.13808 13.2525 4.74058 13.0275C4.71058 13.0125 4.71058 12.9675 4.73308 12.945C4.81558 12.885 4.89808 12.8175 4.98058 12.7575C4.99558 12.7425 5.01808 12.7425 5.03308 12.75C7.61308 13.9275 10.3956 13.9275 12.9456 12.75C12.9606 12.7425 12.9831 12.7425 12.9981 12.7575C13.0806 12.825 13.1631 12.885 13.2456 12.9525C13.2756 12.975 13.2756 13.02 13.2381 13.035C12.8481 13.2675 12.4356 13.455 12.0081 13.62C11.9781 13.6275 11.9706 13.665 11.9781 13.6875C12.2181 14.145 12.4881 14.58 12.7806 14.9925C12.8031 15 12.8256 15.0075 12.8481 15C14.1381 14.6025 15.4356 14.0025 16.7856 13.0125C16.8006 13.005 16.8081 12.99 16.8081 12.975C17.1381 9.57753 16.2606 6.63003 14.4831 4.01253C14.4756 4.00503 14.4681 3.99753 14.4531 3.99753ZM6.39058 11.1825C5.61808 11.1825 4.97308 10.47 4.97308 9.59253C4.97308 8.71503 5.60308 8.00253 6.39058 8.00253C7.18558 8.00253 7.81558 8.72253 7.80808 9.59253C7.80808 10.47 7.17808 11.1825 6.39058 11.1825ZM11.6181 11.1825C10.8456 11.1825 10.2006 10.47 10.2006 9.59253C10.2006 8.71503 10.8306 8.00253 11.6181 8.00253C12.4131 8.00253 13.0431 8.72253 13.0356 9.59253C13.0356 10.47 12.4131 11.1825 11.6181 11.1825Z" fill="white"/>
</svg>
