<svg width="24" height="24" viewBox="0 0 24 24" fill="none" xmlns="http://www.w3.org/2000/svg">
<path fill-rule="evenodd" clip-rule="evenodd" d="M12 3C9.55575 3 9.24926 3.01036 8.28931 3.05416C7.33137 3.09785 6.67712 3.25001 6.10466 3.47251C5.51283 3.70247 5.01092 4.01021 4.51055 4.51055C4.01021 5.01092 3.70247 5.51283 3.47251 6.10466C3.25001 6.67712 3.09785 7.33137 3.05416 8.28931C3.01036 9.24926 3 9.55575 3 12C3 14.4443 3.01036 14.7507 3.05416 15.7107C3.09785 16.6686 3.25001 17.3229 3.47251 17.8953C3.70247 18.4872 4.01021 18.9891 4.51055 19.4895C5.01092 19.9898 5.51283 20.2975 6.10466 20.5275C6.67712 20.75 7.33137 20.9021 8.28931 20.9458C9.24926 20.9896 9.55575 21 12 21C14.4443 21 14.7507 20.9896 15.7107 20.9458C16.6686 20.9021 17.3229 20.75 17.8953 20.5275C18.4872 20.2975 18.9891 19.9898 19.4895 19.4895C19.9898 18.9891 20.2975 18.4872 20.5275 17.8953C20.75 17.3229 20.9021 16.6686 20.9458 15.7107C20.9896 14.7507 21 14.4443 21 12C21 9.55575 20.9896 9.24926 20.9458 8.28931C20.9021 7.33137 20.75 6.67712 20.5275 6.10466C20.2975 5.51283 19.9898 5.01092 19.4895 4.51055C18.9891 4.01021 18.4872 3.70247 17.8953 3.47251C17.3229 3.25001 16.6686 3.09785 15.7107 3.05416C14.7507 3.01036 14.4443 3 12 3ZM12.0034 4.62109C14.4065 4.62109 14.6911 4.63028 15.6402 4.67357C16.5176 4.71359 16.9942 4.8602 17.3113 4.98346C17.7314 5.14672 18.0312 5.34175 18.3461 5.65671C18.6611 5.97163 18.8561 6.27144 19.0194 6.69153C19.1427 7.00867 19.2893 7.48521 19.3293 8.3627C19.3726 9.31172 19.3818 9.59638 19.3818 11.9995C19.3818 14.4026 19.3726 14.6872 19.3293 15.6362C19.2893 16.5137 19.1427 16.9903 19.0194 17.3074C18.8561 17.7275 18.6611 18.0273 18.3461 18.3422C18.0312 18.6572 17.7314 18.8522 17.3113 19.0155C16.9942 19.1387 16.5176 19.2854 15.6402 19.3254C14.6913 19.3687 14.4067 19.3779 12.0034 19.3779C9.6001 19.3779 9.31552 19.3687 8.36661 19.3254C7.48912 19.2854 7.01257 19.1387 6.69544 19.0155C6.27534 18.8522 5.97553 18.6572 5.66061 18.3422C5.34569 18.0273 5.15063 17.7275 4.98736 17.3074C4.86411 16.9903 4.71749 16.5137 4.67748 15.6362C4.63418 14.6872 4.625 14.4026 4.625 11.9995C4.625 9.59638 4.63418 9.31172 4.67748 8.3627C4.71749 7.48521 4.86411 7.00867 4.98736 6.69153C5.15063 6.27144 5.34566 5.97163 5.66061 5.65671C5.97553 5.34175 6.27534 5.14672 6.69544 4.98346C7.01257 4.8602 7.48912 4.71359 8.36661 4.67357C9.31562 4.63028 9.60028 4.62109 12.0034 4.62109ZM7.375 12.0005C7.375 9.44806 9.44415 7.37891 11.9966 7.37891C14.5491 7.37891 16.6182 9.44806 16.6182 12.0005C16.6182 14.553 14.5491 16.6221 11.9966 16.6221C9.44415 16.6221 7.375 14.553 7.375 12.0005ZM12 15C10.3431 15 9 13.6569 9 12C9 10.3431 10.3431 9 12 9C13.6569 9 15 10.3431 15 12C15 13.6569 13.6569 15 12 15ZM16.8065 8.27524C17.403 8.27524 17.8866 7.79173 17.8866 7.19525C17.8866 6.59878 17.403 6.11523 16.8065 6.11523C16.2101 6.11523 15.7266 6.59878 15.7266 7.19525C15.7266 7.79173 16.2101 8.27524 16.8065 8.27524Z" fill="white"/>
</svg>
