<svg width="24" height="24" viewBox="0 0 24 24" fill="none" xmlns="http://www.w3.org/2000/svg">
<path fill-rule="evenodd" clip-rule="evenodd" d="M5.11877 7.77127H5.09337C3.82338 7.77127 3 6.94039 3 5.88717C3 4.81347 3.84772 4 5.14311 4C6.43744 4 7.2333 4.81142 7.2587 5.8841C7.2587 6.93731 6.43744 7.77127 5.11877 7.77127ZM20.9971 19.9991H17.0189V14.3744C17.0189 12.9022 16.3966 11.8971 15.0282 11.8971C13.9815 11.8971 13.3994 12.5754 13.1285 13.229C13.039 13.4356 13.0406 13.7136 13.0423 14.0002V14.0003C13.0425 14.0392 13.0428 14.0782 13.0428 14.1173V19.9991H9.10156C9.10156 19.9991 9.15236 10.0356 9.10156 9.12989H13.0428V10.8357C13.2756 10.0899 14.535 9.02539 16.5448 9.02539C19.0382 9.02539 20.9971 10.5888 20.9971 13.9554V19.9991ZM6.96147 9.13086H3.45312V20H6.96147V9.13086Z" fill="white"/>
</svg>
