<svg width="24" height="24" viewBox="0 0 24 24" fill="none" xmlns="http://www.w3.org/2000/svg">
<path fill-rule="evenodd" clip-rule="evenodd" d="M21 21H17.5717C17.5717 12.9649 11.0352 6.42836 3.00019 6.42836V3C12.9252 3 21 11.0749 21 21ZM3 18.4289C3 17.0088 4.15135 15.8574 5.5714 15.8574C6.99146 15.8574 8.1428 17.0088 8.1428 18.4289C8.1428 19.8489 6.99146 21.0003 5.5714 21.0003C4.15135 21.0003 3 19.8489 3 18.4289ZM11.5718 21H15.0001C15.0001 14.3831 9.61686 8.99979 3 8.99979V12.4288C7.72623 12.4288 11.5718 16.2737 11.5718 21Z" fill="white"/>
</svg>
